<svg version="1.0" xmlns="http://www.w3.org/2000/svg"
 width="2211.000000pt" height="530.000000pt" viewBox="0 0 2211.000000 530.000000"
 preserveAspectRatio="xMidYMid meet">

<g transform="translate(0.000000,530.000000) scale(0.100000,-0.100000)"
fill="#004F91" stroke="none">
<path d="M12130 5294 c-428 -52 -752 -334 -852 -741 -19 -77 -21 -118 -22
-333 -1 -158 3 -244 9 -243 47 7 453 35 625 43 481 22 1306 4 1608 -36 l43 -5
-3 263 c-4 230 -7 273 -26 340 -97 351 -369 609 -732 694 -48 11 -138 16 -340
19 -151 2 -291 1 -310 -1z"/>
<path d="M9140 3787 c-133 -38 -222 -159 -222 -303 0 -89 30 -162 92 -224 63
-63 119 -85 215 -85 67 0 89 4 137 28 65 32 121 90 151 156 30 65 29 188 0
253 -27 59 -101 134 -158 159 -57 25 -157 33 -215 16z"/>
<path d="M14840 3535 l0 -265 58 0 57 0 45 97 c93 200 230 369 321 393 60 16
119 3 136 -30 10 -20 13 -276 13 -1217 l0 -1193 345 0 345 0 1 1178 c0 884 3
1186 12 1212 29 85 142 80 242 -11 68 -63 162 -202 224 -331 l46 -98 57 0 58
0 0 265 0 265 -980 0 -980 0 0 -265z"/>
<path d="M19315 3787 c-90 -30 -153 -83 -196 -167 -20 -38 -24 -60 -24 -135 0
-78 4 -97 27 -140 32 -60 87 -115 148 -146 37 -19 61 -23 130 -23 72 0 93 4
136 26 65 34 137 114 158 175 21 60 20 156 0 217 -22 65 -100 148 -166 176
-64 27 -158 35 -213 17z"/>
<path d="M340 3607 l-335 -182 -3 -1053 -2 -1052 345 0 345 0 0 515 0 515 270
0 270 0 0 -515 0 -515 345 0 345 0 0 1235 c0 679 -3 1235 -7 1235 -5 -1 -159
-83 -343 -183 l-335 -182 -3 -513 -2 -512 -268 2 -267 3 -3 693 c-1 380 -5
692 -10 692 -4 -1 -158 -83 -342 -183z"/>
<path d="M10959 3720 c-372 -42 -532 -242 -304 -379 107 -65 283 -101 490
-101 l101 0 12 34 c45 125 345 232 777 277 170 18 587 15 762 -4 258 -29 473
-82 606 -149 67 -33 134 -96 139 -130 3 -22 7 -23 93 -26 172 -6 355 24 464
75 213 101 193 264 -42 352 -191 71 -398 74 -760 11 -336 -58 -432 -65 -902
-65 -472 0 -521 4 -930 70 -230 37 -388 48 -506 35z"/>
<path d="M3110 3100 c-293 -35 -560 -176 -714 -379 -63 -83 -92 -139 -128
-243 -32 -92 -33 -95 -32 -273 0 -152 3 -192 22 -257 62 -224 213 -414 413
-518 166 -86 314 -121 519 -121 227 0 375 40 531 142 208 136 319 295 364 517
23 115 17 127 -27 55 -51 -82 -167 -190 -255 -236 -87 -45 -205 -77 -287 -77
-138 0 -285 62 -384 159 -61 60 -136 165 -130 182 4 11 74 50 635 355 223 120
313 174 313 186 0 36 -49 170 -80 218 -78 122 -236 228 -403 270 -93 23 -253
32 -357 20z m6 -115 c81 -62 180 -393 187 -623 l2 -84 -163 -89 c-90 -49 -168
-87 -172 -84 -17 11 -71 198 -86 299 -19 122 -14 341 10 431 46 170 126 223
222 150z"/>
<path d="M4763 2912 l-343 -186 0 -703 0 -703 345 0 345 0 0 671 0 671 31 37
c47 53 129 120 174 142 53 25 115 25 147 -1 14 -11 34 -39 44 -62 18 -40 19
-85 22 -750 l3 -708 344 0 345 0 0 678 c0 731 -2 754 -54 864 -30 64 -109 146
-175 182 -101 55 -240 71 -356 41 -142 -37 -309 -139 -442 -272 l-83 -82 -2
183 -3 184 -342 -186z"/>
<path d="M7033 2911 l-343 -185 0 -698 0 -698 345 0 345 0 0 656 0 655 88 88
c94 94 138 121 200 121 74 0 117 -60 147 -206 25 -126 43 -170 91 -223 148
-165 426 -157 584 16 63 69 84 131 84 243 -1 249 -153 404 -409 417 -230 12
-485 -100 -696 -306 l-89 -87 -2 197 -3 196 -342 -186z"/>
<path d="M9223 2911 l-343 -186 0 -702 0 -703 345 0 345 0 0 890 c0 490 -1
890 -2 889 -2 -1 -157 -85 -345 -188z"/>
<path d="M17203 2910 l-342 -185 -1 -697 0 -697 345 -3 345 -3 0 652 0 652 48
58 c88 106 173 163 241 163 78 0 125 -70 155 -230 9 -47 28 -109 42 -137 62
-127 222 -201 384 -176 187 29 314 157 327 328 22 291 -171 480 -472 462 -237
-14 -500 -151 -676 -352 -17 -19 -35 -35 -40 -35 -5 0 -10 87 -11 193 l-3 192
-342 -185z"/>
<path d="M19401 2912 c-190 -103 -344 -190 -343 -194 1 -5 2 -321 2 -703 l0
-695 345 0 345 0 0 890 c0 490 -1 890 -2 890 -2 0 -158 -85 -347 -188z"/>
<path d="M20553 2910 l-343 -185 0 -1052 0 -1053 345 0 345 0 0 427 0 426 37
-36 c80 -81 213 -121 393 -120 222 1 394 66 530 201 171 170 240 366 240 681
0 301 -54 491 -189 671 -146 193 -408 276 -629 200 -132 -46 -294 -182 -352
-296 l-25 -49 -5 185 -5 186 -342 -186z m671 -104 c45 -34 101 -148 121 -245
52 -251 42 -641 -20 -826 -59 -175 -168 -294 -268 -295 -38 0 -96 26 -129 57
l-28 27 0 566 0 567 28 39 c37 51 106 112 146 130 44 20 109 12 150 -20z"/>
<path d="M11943 2286 c-271 -142 -452 -383 -515 -686 -28 -133 -21 -326 16
-455 33 -113 101 -251 165 -335 27 -36 217 -231 420 -435 l371 -370 351 350
c193 193 380 386 415 430 166 204 247 482 215 741 -42 335 -244 620 -550 774
l-64 32 -96 -33 c-84 -28 -113 -33 -232 -37 -147 -5 -263 11 -348 49 -24 10
-49 19 -55 19 -6 0 -48 -20 -93 -44z m643 -486 c89 -43 161 -115 205 -205 33
-67 34 -74 34 -185 0 -114 -1 -117 -38 -192 -132 -268 -472 -328 -688 -122
-239 229 -151 613 166 727 38 13 74 17 151 15 91 -3 107 -7 170 -38z"/>
</g>
</svg>
